# File produced by Open Asset Import Library (http://www.assimp.sf.net)
# (assimp v4.1.216079013)

mtllib Chain.mtl

# 60 vertex positions
v  41.58000183105469 -8.04517650604248 -1.103068470954895
v  41.58000183105469 -7.932878971099854 0.4805477559566498
v  41.58000183105469 -6.302621364593506 2.903010606765747
v  41.58000183105469 9.533245086669922 0.3288734555244446
v  41.58000183105469 9.384437561035156 -1.078717231750488
v  41.58000183105469 -2.815376996994019 9.12288761138916
v  41.58000183105469 2.796935319900513 9.130904197692871
v  41.58000183105469 -5.322490692138672 4.518283367156982
v  60 -5.322490692138672 4.518283367156982
v  60 -2.815376996994019 9.12288761138916
v  60 -6.302621364593506 2.903010606765747
v  60 -7.932878971099854 0.4805477559566498
v  60 -8.04517650604248 -1.103068470954895
v  60 9.384437561035156 -1.078717231750488
v  60 9.533245086669922 0.3288734555244446
v  60 2.796935319900513 9.130904197692871
v  78.42000579833984 -5.322490692138672 4.518283367156982
v  78.42000579833984 -2.815376996994019 9.12288761138916
v  78.42000579833984 -6.302621364593506 2.903010606765747
v  78.42000579833984 -7.932878971099854 0.4805477559566498
v  78.42000579833984 -8.04517650604248 -1.103068470954895
v  78.42000579833984 9.384437561035156 -1.078717231750488
v  78.42000579833984 9.533245086669922 0.3288734555244446
v  78.42000579833984 2.796935319900513 9.130904197692871
v  0 -19.11923217773438 -1.124358177185059
v  0 -18.36519622802734 -1.000775098800659
v  0 -7.962085723876953 -0.600120484828949
v  0 -21.78468322753906 -8.020833969116211
v  0 -21.83025169372559 -2.029014348983765
v  0 17.41855621337891 -8.997878074645996
v  0 -19.37910461425781 -8.796848297119141
v  0 21.82724380493164 -7.974851131439209
v  0 19.27374076843262 -8.754572868347168
v  0 20.83920860290527 -1.429387927055359
v  0 21.8582878112793 -2.271812915802002
v  0 16.41875076293945 -0.8007580637931824
v  60 -18.36519622802734 -1.000775098800659
v  60 -7.962085723876953 -0.600120484828949
v  60 -19.11923217773438 -1.124358177185059
v  60 -21.83025169372559 -2.029014348983765
v  60 -21.78468322753906 -8.020833969116211
v  60 -19.37910461425781 -8.796848297119141
v  60 17.41855621337891 -8.997878074645996
v  60 19.27374076843262 -8.754572868347168
v  60 21.82724380493164 -7.974851131439209
v  60 21.8582878112793 -2.271812915802002
v  60 20.83920860290527 -1.429387927055359
v  60 16.41875076293945 -0.8007580637931824
v  120 -18.36519622802734 -1.000775098800659
v  120 -7.962085723876953 -0.600120484828949
v  120 -19.11923217773438 -1.124358177185059
v  120 -21.83025169372559 -2.029014348983765
v  120 -21.78468322753906 -8.020833969116211
v  120 -19.37910461425781 -8.796848297119141
v  120 17.41855621337891 -8.997878074645996
v  120 19.27374076843262 -8.754572868347168
v  120 21.82724380493164 -7.974851131439209
v  120 21.8582878112793 -2.271812915802002
v  120 20.83920860290527 -1.429387927055359
v  120 16.41875076293945 -0.8007580637931824

# 79 UV coordinates
vt 0 0 1
vt 0.006388407200574875 0.1547411233186722 1
vt 0.09913037717342377 0.3914491236209869 1
vt 1 0.1399204432964325 1
vt 0.9915346503257751 0.002379458397626877 1
vt 0.2975124716758728 0.9992167353630066 1
vt 0.6167852878570557 1 1
vt 0.1548879891633987 0.549283504486084 1
vt 0.1343919187784195 0 1
vt 0.1343919187784195 0.5 1
vt 0 0.5 1
vt 0.1821103096008301 0 1
vt 0.1821103096008301 0.5 1
vt 0.2546786069869995 0 1
vt 0.2546786069869995 0.5 1
vt 0.2985368072986603 0 1
vt 0.2985368072986603 0.5 1
vt 0.595917820930481 0 1
vt 0.595917820930481 0.5 1
vt 0.6349464654922485 0 1
vt 0.6349464654922485 0.5 1
vt 0.9042437076568604 0 1
vt 0.9042437076568604 0.5 1
vt 1 0 1
vt 1 0.5 1
vt 0.1343919187784195 1 1
vt 0 1 1
vt 0.1821103096008301 1 1
vt 0.2546786069869995 1 1
vt 0.2985368072986603 1 1
vt 0.595917820930481 1 1
vt 0.6349464654922485 1 1
vt 0.9042437076568604 1 1
vt 1 1 1
vt 0.06205331534147263 0.9375740885734558 1
vt 0.07931265980005264 0.9522902965545654 1
vt 0.3174325525760651 1 1
vt 0.001043003750964999 0.1163458079099655 1
vt 0 0.8298481702804565 1
vt 0.8983776569366455 0 1
vt 0.05610499158501625 0.02393852919340134 1
vt 0.9992893934249878 0.1218214482069016 1
vt 0.9408414959907532 0.02897263877093792 1
vt 0.97667396068573 0.9012513160705566 1
vt 1 0.8009358644485474 1
vt 0.8754928112030029 0.976108193397522 1
vt 0.09639198333024979 0 1
vt 0.09639198333024979 0.5 1
vt 0.1036071479320526 0 1
vt 0.1036071479320526 0.5 1
vt 0.1321131736040115 0 1
vt 0.1321131736040115 0.5 1
vt 0.2219713181257248 0 1
vt 0.2219713181257248 0.5 1
vt 0.2470774501562119 0 1
vt 0.2470774501562119 0.5 1
vt 0.5873834490776062 0 1
vt 0.5873834490776062 0.5 1
vt 0.6049233078956604 0 1
vt 0.6049233078956604 0.5 1
vt 0.6312738060951233 0 1
vt 0.6312738060951233 0.5 1
vt 0.7168007493019104 0 1
vt 0.7168007493019104 0.5 1
vt 0.7325620651245117 0 1
vt 0.7325620651245117 0.5 1
vt 0.7745139598846436 0 1
vt 0.7745139598846436 0.5 1
vt 0.09639198333024979 1 1
vt 0.1036071479320526 1 1
vt 0.1321131736040115 1 1
vt 0.2219713181257248 1 1
vt 0.2470774501562119 1 1
vt 0.5873834490776062 1 1
vt 0.6049233078956604 1 1
vt 0.6312738060951233 1 1
vt 0.7168007493019104 1 1
vt 0.7325620651245117 1 1
vt 0.7745139598846436 1 1

# 22 vertex normals
vn -1 0 0
vn 0 -0.9479928612709045 0.3182916045188904
vn 0 -0.9365825057029724 0.3504472076892853
vn 0 -0.9236258268356323 0.3832953274250031
vn 0 -0.9990453124046326 0.04368638247251511
vn 0 0.002265661722049117 -0.9999974370002747
vn 0 0.9978818297386169 -0.06505285203456879
vn 0 0.9043506383895874 0.4267902076244354
vn 0 -0.002316260477527976 0.9999973177909851
vn 1 0 0
vn 0 -0.06233373656868935 0.9980553388595581
vn 0 -0.2568661868572235 0.9664469957351685
vn 0 -0.4759275615215302 0.8794844746589661
vn 0 -0.9999890327453613 -0.004689518362283707
vn 0 -0.4635362029075623 -0.8860780000686646
vn 0 -0.008859008550643921 -0.9999607801437378
vn 0 0.2080268412828445 -0.9781231284141541
vn 0 0.4437562525272369 -0.8961475491523743
vn 0 0.9999943375587463 -0.003356731729581952
vn 0 0.801551878452301 0.5979251861572266
vn 0 0.2247176766395569 0.974423885345459
vn 0 0.01334402058273554 0.9999109506607056

# Mesh '' with 44 faces
usemtl $Material_0
f  1/1/1 2/2/1 3/3/1
f  4/4/1 5/5/1 1/1/1
f  6/6/1 7/7/1 4/4/1
f  1/1/1 3/3/1 8/8/1
f  6/6/1 4/4/1 1/1/1
f  1/1/1 8/8/1 6/6/1
f  6/1/2 8/9/2 9/10/2
f  6/1/2 9/10/2 10/11/2
f  8/9/3 3/12/3 11/13/3
f  8/9/3 11/13/3 9/10/3
f  3/12/4 2/14/4 12/15/4
f  3/12/4 12/15/4 11/13/4
f  2/14/5 1/16/5 13/17/5
f  2/14/5 13/17/5 12/15/5
f  1/16/6 5/18/6 14/19/6
f  1/16/6 14/19/6 13/17/6
f  5/18/7 4/20/7 15/21/7
f  5/18/7 15/21/7 14/19/7
f  4/20/8 7/22/8 16/23/8
f  4/20/8 16/23/8 15/21/8
f  7/22/9 6/24/9 10/25/9
f  7/22/9 10/25/9 16/23/9
f  10/11/2 9/10/2 17/26/2
f  10/11/2 17/26/2 18/27/2
f  9/10/3 11/13/3 19/28/3
f  9/10/3 19/28/3 17/26/3
f  11/13/4 12/15/4 20/29/4
f  11/13/4 20/29/4 19/28/4
f  12/15/5 13/17/5 21/30/5
f  12/15/5 21/30/5 20/29/5
f  13/17/6 14/19/6 22/31/6
f  13/17/6 22/31/6 21/30/6
f  14/19/7 15/21/7 23/32/7
f  14/19/7 23/32/7 22/31/7
f  15/21/8 16/23/8 24/33/8
f  15/21/8 24/33/8 23/32/8
f  16/23/9 10/25/9 18/34/9
f  16/23/9 18/34/9 24/33/9
f  19/3/10 20/2/10 21/1/10
f  21/1/10 22/5/10 23/4/10
f  23/4/10 24/7/10 18/6/10
f  17/8/10 19/3/10 21/1/10
f  21/1/10 23/4/10 18/6/10
f  18/6/10 17/8/10 21/1/10

# Mesh '' with 68 faces
usemtl $Material_1
f  25/35/1 26/36/1 27/37/1
f  28/38/1 29/39/1 25/35/1
f  30/40/1 31/41/1 28/38/1
f  32/42/1 33/43/1 30/40/1
f  34/44/1 35/45/1 32/42/1
f  27/37/1 36/46/1 34/44/1
f  28/38/1 25/35/1 27/37/1
f  32/42/1 30/40/1 28/38/1
f  27/37/1 34/44/1 32/42/1
f  32/42/1 28/38/1 27/37/1
f  27/1/11 26/47/11 37/48/11
f  27/1/11 37/48/11 38/11/11
f  26/47/12 25/49/12 39/50/12
f  26/47/12 39/50/12 37/48/12
f  25/49/13 29/51/13 40/52/13
f  25/49/13 40/52/13 39/50/13
f  29/51/14 28/53/14 41/54/14
f  29/51/14 41/54/14 40/52/14
f  28/53/15 31/55/15 42/56/15
f  28/53/15 42/56/15 41/54/15
f  31/55/16 30/57/16 43/58/16
f  31/55/16 43/58/16 42/56/16
f  30/57/17 33/59/17 44/60/17
f  30/57/17 44/60/17 43/58/17
f  33/59/18 32/61/18 45/62/18
f  33/59/18 45/62/18 44/60/18
f  32/61/19 35/63/19 46/64/19
f  32/61/19 46/64/19 45/62/19
f  35/63/20 34/65/20 47/66/20
f  35/63/20 47/66/20 46/64/20
f  34/65/21 36/67/21 48/68/21
f  34/65/21 48/68/21 47/66/21
f  36/67/22 27/24/22 38/25/22
f  36/67/22 38/25/22 48/68/22
f  38/11/11 37/48/11 49/69/11
f  38/11/11 49/69/11 50/27/11
f  37/48/12 39/50/12 51/70/12
f  37/48/12 51/70/12 49/69/12
f  39/50/13 40/52/13 52/71/13
f  39/50/13 52/71/13 51/70/13
f  40/52/14 41/54/14 53/72/14
f  40/52/14 53/72/14 52/71/14
f  41/54/15 42/56/15 54/73/15
f  41/54/15 54/73/15 53/72/15
f  42/56/16 43/58/16 55/74/16
f  42/56/16 55/74/16 54/73/16
f  43/58/17 44/60/17 56/75/17
f  43/58/17 56/75/17 55/74/17
f  44/60/18 45/62/18 57/76/18
f  44/60/18 57/76/18 56/75/18
f  45/62/19 46/64/19 58/77/19
f  45/62/19 58/77/19 57/76/19
f  46/64/20 47/66/20 59/78/20
f  46/64/20 59/78/20 58/77/20
f  47/66/21 48/68/21 60/79/21
f  47/66/21 60/79/21 59/78/21
f  48/68/22 38/25/22 50/34/22
f  48/68/22 50/34/22 60/79/22
f  50/37/10 49/36/10 51/35/10
f  51/35/10 52/39/10 53/38/10
f  53/38/10 54/41/10 55/40/10
f  55/40/10 56/43/10 57/42/10
f  57/42/10 58/45/10 59/44/10
f  59/44/10 60/46/10 50/37/10
f  50/37/10 51/35/10 53/38/10
f  53/38/10 55/40/10 57/42/10
f  57/42/10 59/44/10 50/37/10
f  50/37/10 53/38/10 57/42/10

