# File produced by Open Asset Import Library (http://www.assimp.sf.net)
# (assimp v4.1.216079013)

mtllib Smart3D_1.mtl

# 60 vertex positions
v  0.4535236656665802 0.2734988331794739 0
v  -0.0196666307747364 0.2719056606292725 0
v  -0.01971404626965523 0.6413807272911072 0
v  -0.01967973634600639 -0.6380814909934998 0
v  -0.01975741982460022 -0.3053297400474548 0
v  0.454349160194397 -0.3013215065002441 0
v  0.4635930359363556 0.268645703792572 0
v  0.853060245513916 -0.638034462928772 0
v  0.4621634781360626 -0.2941412925720215 0
v  0.8530514240264893 0.6413766741752625 0
v  -0.0196666307747364 0.2719056606292725 0.1666666716337204
v  -0.01971404626965523 0.6413807272911072 0.1666666716337204
v  0.4535236656665802 0.2734988331794739 0.1666666716337204
v  0.4635930359363556 0.268645703792572 0.1666666716337204
v  0.4621634781360626 -0.2941412925720215 0.1666666716337204
v  0.454349160194397 -0.3013215065002441 0.1666666716337204
v  -0.01975741982460022 -0.3053297400474548 0.1666666716337204
v  -0.01967973634600639 -0.6380814909934998 0.1666666716337204
v  0.853060245513916 -0.638034462928772 0.1666666716337204
v  0.8530514240264893 0.6413766741752625 0.1666666716337204
v  -0.0196666307747364 0.2719056606292725 0.3333333432674408
v  -0.01971404626965523 0.6413807272911072 0.3333333432674408
v  0.4535236656665802 0.2734988331794739 0.3333333432674408
v  0.4635930359363556 0.268645703792572 0.3333333432674408
v  0.4621634781360626 -0.2941412925720215 0.3333333432674408
v  0.454349160194397 -0.3013215065002441 0.3333333432674408
v  -0.01975741982460022 -0.3053297400474548 0.3333333432674408
v  -0.01967973634600639 -0.6380814909934998 0.3333333432674408
v  0.853060245513916 -0.638034462928772 0.3333333432674408
v  0.8530514240264893 0.6413766741752625 0.3333333432674408
v  -0.01365337520837784 -0.3019187748432159 0
v  -0.01360602397471666 -0.6347007155418396 0
v  -0.8563719391822815 -0.6347227692604065 0
v  -0.01363697182387114 0.6413983106613159 0
v  -0.01359444577246904 0.2753109335899353 0
v  -0.4669800400733948 0.2752587199211121 0
v  -0.463502436876297 -0.300170361995697 0
v  -0.8563807010650635 0.6413807272911072 0
v  -0.4735922813415527 -0.2953131198883057 0
v  -0.4718385934829712 0.2651623487472534 0
v  -0.8563719391822815 -0.6347227692604065 0.1666666716337204
v  -0.8563807010650635 0.6413807272911072 0.1666666716337204
v  -0.01360602397471666 -0.6347007155418396 0.1666666716337204
v  -0.01365337520837784 -0.3019187748432159 0.1666666716337204
v  -0.463502436876297 -0.300170361995697 0.1666666716337204
v  -0.4735922813415527 -0.2953131198883057 0.1666666716337204
v  -0.4718385934829712 0.2651623487472534 0.1666666716337204
v  -0.4669800400733948 0.2752587199211121 0.1666666716337204
v  -0.01359444577246904 0.2753109335899353 0.1666666716337204
v  -0.01363697182387114 0.6413983106613159 0.1666666716337204
v  -0.8563719391822815 -0.6347227692604065 0.3333333432674408
v  -0.8563807010650635 0.6413807272911072 0.3333333432674408
v  -0.01360602397471666 -0.6347007155418396 0.3333333432674408
v  -0.01365337520837784 -0.3019187748432159 0.3333333432674408
v  -0.463502436876297 -0.300170361995697 0.3333333432674408
v  -0.4735922813415527 -0.2953131198883057 0.3333333432674408
v  -0.4718385934829712 0.2651623487472534 0.3333333432674408
v  -0.4669800400733948 0.2752587199211121 0.3333333432674408
v  -0.01359444577246904 0.2753109335899353 0.3333333432674408
v  -0.01363697182387114 0.6413983106613159 0.3333333432674408

# 80 UV coordinates
vt 0.542245090007782 0.7124714851379395 1
vt 0.0001040192000800744 0.7112262845039368 1
vt 4.969502697349526e-05 1 1
vt 8.900270040612668e-05 0 1
vt 0 0.2600715458393097 1
vt 0.5431908369064331 0.2632043063640594 1
vt 0.5537816882133484 0.7086783647537231 1
vt 1 3.673189348774031e-05 1
vt 0.5521438717842102 0.268816202878952 1
vt 0.999989926815033 0.9999968409538269 1
vt 0 0 1
vt 0.07025524228811264 0 1
vt 0.07025524228811264 0.5 1
vt 0 0.5 1
vt 0.1602323204278946 0 1
vt 0.1602323204278946 0.5 1
vt 0.1623577922582626 0 1
vt 0.1623577922582626 0.5 1
vt 0.2693714201450348 0 1
vt 0.2693714201450348 0.5 1
vt 0.2713893055915833 0 1
vt 0.2713893055915833 0.5 1
vt 0.3615433573722839 0 1
vt 0.3615433573722839 0.5 1
vt 0.4248156845569611 0 1
vt 0.4248156845569611 0.5 1
vt 0.5907661914825439 0 1
vt 0.5907661914825439 0.5 1
vt 0.8340446949005127 0 1
vt 0.8340446949005127 0.5 1
vt 1 0 1
vt 1 0.5 1
vt 0.07025524228811264 1 1
vt 0 1 1
vt 0.1602323204278946 1 1
vt 0.1623577922582626 1 1
vt 0.2693714201450348 1 1
vt 0.2713893055915833 1 1
vt 0.3615433573722839 1 1
vt 0.4248156845569611 1 1
vt 0.5907661914825439 1 1
vt 0.8340446949005127 1 1
vt 1 1 1
vt 0.9999300837516785 0.2607934474945068 1
vt 0.9999862909317017 1.729803079797421e-05 1
vt 1.038029768096749e-05 0 1
vt 0.9999495148658752 1 1
vt 1 0.7131248712539673 1
vt 0.4620396494865417 0.7130839824676514 1
vt 0.4661659598350525 0.2621635496616364 1
vt 0 0.9999862313270569 1
vt 0.4541939795017242 0.2659698128700256 1
vt 0.4562748074531555 0.7051722407341003 1
vt 0.2479507178068161 0 1
vt 0.2479507178068161 0.5 1
vt 0.4117026627063751 0 1
vt 0.4117026627063751 0.5 1
vt 0.4763631820678711 0 1
vt 0.4763631820678711 0.5 1
vt 0.5637708306312561 0 1
vt 0.5637708306312561 0.5 1
vt 0.5659466981887817 0 1
vt 0.5659466981887817 0.5 1
vt 0.674849271774292 0 1
vt 0.674849271774292 0.5 1
vt 0.6770263314247131 0 1
vt 0.6770263314247131 0.5 1
vt 0.7651205062866211 0 1
vt 0.7651205062866211 0.5 1
vt 0.8362523913383484 0 1
vt 0.8362523913383484 0.5 1
vt 0.2479507178068161 1 1
vt 0.4117026627063751 1 1
vt 0.4763631820678711 1 1
vt 0.5637708306312561 1 1
vt 0.5659466981887817 1 1
vt 0.674849271774292 1 1
vt 0.6770263314247131 1 1
vt 0.7651205062866211 1 1
vt 0.8362523913383484 1 1

# 22 vertex normals
vn 0 0 -1
vn -1 -0.0001283309829887003 0
vn 0.003366850782185793 -0.9999943375587463 0
vn -0.4341726005077362 -0.9008297324180603 0
vn -0.9999967813491821 0.00254010921344161 0
vn -0.6765992045402527 0.736351490020752 0
vn -0.008453977294266224 0.9999642372131348 0
vn -1 -0.0002334567252546549 0
vn 5.385002441471443e-05 -1 0
vn 1 6.87756664774497e-06 0
vn 4.662203537009191e-06 1 0
vn 0 0 1
vn -1 -6.855535048089223e-06 0
vn 2.619277802295983e-05 -1 0
vn 1 0.0001422899222234264 0
vn 0.003886613994836807 0.9999924302101135 0
vn 0.4337569773197174 0.9010298848152161 0
vn 0.9999951124191284 -0.003128922078758478 0
vn 0.9010944366455078 -0.4336229562759399 0
vn 0.0001151569231296889 -1 0
vn 1 0.0001161633190349676 0
vn -2.088234941766132e-05 1 0

# Mesh '' with 56 faces
usemtl $Material_0
f  1/1/1 2/2/1 3/3/1
f  4/4/1 5/5/1 6/6/1
f  7/7/1 1/1/1 3/3/1
f  8/8/1 4/4/1 6/6/1
f  8/8/1 6/6/1 9/9/1
f  8/8/1 9/9/1 7/7/1
f  10/10/1 8/8/1 7/7/1
f  10/10/1 7/7/1 3/3/1
f  3/11/2 2/12/2 11/13/2
f  3/11/2 11/13/2 12/14/2
f  2/12/3 1/15/3 13/16/3
f  2/12/3 13/16/3 11/13/3
f  1/15/4 7/17/4 14/18/4
f  1/15/4 14/18/4 13/16/4
f  7/17/5 9/19/5 15/20/5
f  7/17/5 15/20/5 14/18/5
f  9/19/6 6/21/6 16/22/6
f  9/19/6 16/22/6 15/20/6
f  6/21/7 5/23/7 17/24/7
f  6/21/7 17/24/7 16/22/7
f  5/23/8 4/25/8 18/26/8
f  5/23/8 18/26/8 17/24/8
f  4/25/9 8/27/9 19/28/9
f  4/25/9 19/28/9 18/26/9
f  8/27/10 10/29/10 20/30/10
f  8/27/10 20/30/10 19/28/10
f  10/29/11 3/31/11 12/32/11
f  10/29/11 12/32/11 20/30/11
f  12/14/2 11/13/2 21/33/2
f  12/14/2 21/33/2 22/34/2
f  11/13/3 13/16/3 23/35/3
f  11/13/3 23/35/3 21/33/3
f  13/16/4 14/18/4 24/36/4
f  13/16/4 24/36/4 23/35/4
f  14/18/5 15/20/5 25/37/5
f  14/18/5 25/37/5 24/36/5
f  15/20/6 16/22/6 26/38/6
f  15/20/6 26/38/6 25/37/6
f  16/22/7 17/24/7 27/39/7
f  16/22/7 27/39/7 26/38/7
f  17/24/8 18/26/8 28/40/8
f  17/24/8 28/40/8 27/39/8
f  18/26/9 19/28/9 29/41/9
f  18/26/9 29/41/9 28/40/9
f  19/28/10 20/30/10 30/42/10
f  19/28/10 30/42/10 29/41/10
f  20/30/11 12/32/11 22/43/11
f  20/30/11 22/43/11 30/42/11
f  22/3/12 21/2/12 23/1/12
f  26/6/12 27/5/12 28/4/12
f  22/3/12 23/1/12 24/7/12
f  26/6/12 28/4/12 29/8/12
f  25/9/12 26/6/12 29/8/12
f  24/7/12 25/9/12 29/8/12
f  24/7/12 29/8/12 30/10/12
f  22/3/12 24/7/12 30/10/12

# Mesh '' with 56 faces
usemtl $Material_1
f  31/44/1 32/45/1 33/46/1
f  34/47/1 35/48/1 36/49/1
f  37/50/1 31/44/1 33/46/1
f  38/51/1 34/47/1 36/49/1
f  39/52/1 37/50/1 33/46/1
f  38/51/1 36/49/1 40/53/1
f  39/52/1 33/46/1 38/51/1
f  38/51/1 40/53/1 39/52/1
f  38/11/13 33/54/13 41/55/13
f  38/11/13 41/55/13 42/14/13
f  33/54/14 32/56/14 43/57/14
f  33/54/14 43/57/14 41/55/14
f  32/56/15 31/58/15 44/59/15
f  32/56/15 44/59/15 43/57/15
f  31/58/16 37/60/16 45/61/16
f  31/58/16 45/61/16 44/59/16
f  37/60/17 39/62/17 46/63/17
f  37/60/17 46/63/17 45/61/17
f  39/62/18 40/64/18 47/65/18
f  39/62/18 47/65/18 46/63/18
f  40/64/19 36/66/19 48/67/19
f  40/64/19 48/67/19 47/65/19
f  36/66/20 35/68/20 49/69/20
f  36/66/20 49/69/20 48/67/20
f  35/68/21 34/70/21 50/71/21
f  35/68/21 50/71/21 49/69/21
f  34/70/22 38/31/22 42/32/22
f  34/70/22 42/32/22 50/71/22
f  42/14/13 41/55/13 51/72/13
f  42/14/13 51/72/13 52/34/13
f  41/55/14 43/57/14 53/73/14
f  41/55/14 53/73/14 51/72/14
f  43/57/15 44/59/15 54/74/15
f  43/57/15 54/74/15 53/73/15
f  44/59/16 45/61/16 55/75/16
f  44/59/16 55/75/16 54/74/16
f  45/61/17 46/63/17 56/76/17
f  45/61/17 56/76/17 55/75/17
f  46/63/18 47/65/18 57/77/18
f  46/63/18 57/77/18 56/76/18
f  47/65/19 48/67/19 58/78/19
f  47/65/19 58/78/19 57/77/19
f  48/67/20 49/69/20 59/79/20
f  48/67/20 59/79/20 58/78/20
f  49/69/21 50/71/21 60/80/21
f  49/69/21 60/80/21 59/79/21
f  50/71/22 42/32/22 52/43/22
f  50/71/22 52/43/22 60/80/22
f  51/46/12 53/45/12 54/44/12
f  58/49/12 59/48/12 60/47/12
f  51/46/12 54/44/12 55/50/12
f  58/49/12 60/47/12 52/51/12
f  51/46/12 55/50/12 56/52/12
f  57/53/12 58/49/12 52/51/12
f  52/51/12 51/46/12 56/52/12
f  56/52/12 57/53/12 52/51/12

